{
  "asset": {
    "version": "2.0",
    "generator": "3dpea GLTFExporter"
  },
  "scenes": [
    {
      "name": "AuxScene",
      "nodes": [
        13
      ]
    }
  ],
  "scene": 0,
  "nodes": [
    {
      "name": "Sphere002__0",
      "extras": {
        "name": "Sphere.002__0"
      },
      "mesh": 0
    },
    {
      "matrix": [
        89.09976196289062,
        -6.7825618005113964e-15,
        -4.326657458007728e-15,
        0,
        1.6357330616532366e-15,
        62.19013214111329,
        -63.805603027343736,
        0,
        7.877022669117807e-15,
        63.805603027343736,
        62.19013214111329,
        0,
        0,
        96.58325958251953,
        -0.8378736972808838,
        1
      ],
      "name": "Sphere002",
      "extras": {
        "name": "Sphere.002"
      },
      "children": [
        0
      ]
    },
    {
      "name": "Cylinder__0",
      "extras": {
        "name": "Cylinder__0"
      },
      "mesh": 1
    },
    {
      "matrix": [
        100,
        -7.612322196916917e-15,
        -4.855969717256384e-15,
        0,
        1.835843921034846e-15,
        69.7983169555664,
        -71.61141967773439,
        0,
        8.840677130172437e-15,
        71.61141967773439,
        69.7983169555664,
        0,
        0,
        167.83177185058594,
        17.81170654296875,
        1
      ],
      "name": "Cylinder",
      "extras": {
        "name": "Cylinder"
      },
      "children": [
        2
      ]
    },
    {
      "name": "Plane__0",
      "extras": {
        "name": "Plane__0"
      },
      "mesh": 2
    },
    {
      "matrix": [
        19.624774932861328,
        -1.4939011109967455e-15,
        -9.529731895605214e-16,
        0,
        3.602803215038412e-16,
        13.697764396667479,
        -14.053580284118652,
        0,
        1.7349631546527639e-15,
        14.053580284118652,
        13.697764396667479,
        0,
        0.0000018812717144101043,
        130.5634765625,
        32.83354187011719,
        1
      ],
      "name": "Plane",
      "extras": {
        "name": "Plane"
      },
      "children": [
        4
      ]
    },
    {
      "name": "Sphere__0",
      "extras": {
        "name": "Sphere__0"
      },
      "mesh": 3
    },
    {
      "matrix": [
        100,
        0,
        0,
        0,
        0,
        -0.000013435885204415974,
        -100,
        0,
        0,
        100,
        -0.000013435885204415974,
        0,
        0,
        84.99791717529297,
        0,
        1
      ],
      "name": "Sphere",
      "extras": {
        "name": "Sphere"
      },
      "children": [
        6
      ]
    },
    {
      "name": "Sphere001__0",
      "extras": {
        "name": "Sphere.001__0"
      },
      "mesh": 4
    },
    {
      "matrix": [
        100,
        0,
        0,
        0,
        0,
        -0.000013435885204415974,
        -100,
        0,
        0,
        100,
        -0.000013435885204415974,
        0,
        0,
        90.17996978759766,
        0,
        1
      ],
      "name": "Sphere001",
      "extras": {
        "name": "Sphere.001"
      },
      "children": [
        8
      ]
    },
    {
      "name": "RootNode",
      "extras": {
        "name": "RootNode"
      },
      "children": [
        1,
        3,
        5,
        7,
        9
      ]
    },
    {
      "matrix": [
        0.009999999776482582,
        0,
        0,
        0,
        0,
        3.422854223488029e-10,
        0.009999999776482582,
        0,
        0,
        -0.009999999776482582,
        3.422854223488029e-10,
        0,
        0,
        0,
        0,
        1
      ],
      "name": "7753a399fa7a4cb4935d6f20a29b1484fbx",
      "extras": {
        "name": "7753a399fa7a4cb4935d6f20a29b1484.fbx"
      },
      "children": [
        10
      ]
    },
    {
      "matrix": [
        1,
        0,
        0,
        0,
        0,
        3.4228538433719356e-8,
        -0.9999998211860657,
        0,
        0,
        0.9999998211860657,
        3.4228538433719356e-8,
        0,
        0,
        0.014999999664723873,
        0,
        1
      ],
      "name": "Sketchfab_model",
      "extras": {
        "name": "Sketchfab_model"
      },
      "children": [
        11
      ]
    },
    {
      "name": "scene",
      "children": [
        12
      ]
    }
  ],
  "bufferViews": [
    {
      "buffer": 0,
      "byteOffset": 0,
      "byteLength": 266808,
      "target": 34962,
      "byteStride": 12
    },
    {
      "buffer": 0,
      "byteOffset": 266808,
      "byteLength": 266808,
      "target": 34962,
      "byteStride": 12
    },
    {
      "buffer": 0,
      "byteOffset": 533616,
      "byteLength": 177872,
      "target": 34962,
      "byteStride": 8
    },
    {
      "buffer": 0,
      "byteOffset": 711488,
      "byteLength": 477312,
      "target": 34963
    },
    {
      "buffer": 0,
      "byteOffset": 1188800,
      "byteLength": 18240,
      "target": 34962,
      "byteStride": 12
    },
    {
      "buffer": 0,
      "byteOffset": 1207040,
      "byteLength": 18240,
      "target": 34962,
      "byteStride": 12
    },
    {
      "buffer": 0,
      "byteOffset": 1225280,
      "byteLength": 12160,
      "target": 34962,
      "byteStride": 8
    },
    {
      "buffer": 0,
      "byteOffset": 1237440,
      "byteLength": 20880,
      "target": 34963
    },
    {
      "buffer": 0,
      "byteOffset": 1258320,
      "byteLength": 588,
      "target": 34962,
      "byteStride": 12
    },
    {
      "buffer": 0,
      "byteOffset": 1258908,
      "byteLength": 588,
      "target": 34962,
      "byteStride": 12
    },
    {
      "buffer": 0,
      "byteOffset": 1259496,
      "byteLength": 392,
      "target": 34962,
      "byteStride": 8
    },
    {
      "buffer": 0,
      "byteOffset": 1259888,
      "byteLength": 864,
      "target": 34963
    },
    {
      "buffer": 0,
      "byteOffset": 1260752,
      "byteLength": 77184,
      "target": 34962,
      "byteStride": 12
    },
    {
      "buffer": 0,
      "byteOffset": 1337936,
      "byteLength": 77184,
      "target": 34962,
      "byteStride": 12
    },
    {
      "buffer": 0,
      "byteOffset": 1415120,
      "byteLength": 51456,
      "target": 34962,
      "byteStride": 8
    },
    {
      "buffer": 0,
      "byteOffset": 1466576,
      "byteLength": 134400,
      "target": 34963
    },
    {
      "buffer": 0,
      "byteOffset": 1600976,
      "byteLength": 44280,
      "target": 34962,
      "byteStride": 12
    },
    {
      "buffer": 0,
      "byteOffset": 1645256,
      "byteLength": 44280,
      "target": 34962,
      "byteStride": 12
    },
    {
      "buffer": 0,
      "byteOffset": 1689536,
      "byteLength": 29520,
      "target": 34962,
      "byteStride": 8
    },
    {
      "buffer": 0,
      "byteOffset": 1719056,
      "byteLength": 84480,
      "target": 34963
    }
  ],
  "buffers": [
    {
      "byteLength": 1803536,
      "uri": "data:application/octet-stream;base64,"
    }
  ],
  "accessors": [
    {
      "bufferView": 0,
      "componentType": 5126,
      "count": 22234,
      "max": [
        1,
        1,
        1
      ],
      "min": [
        -1,
        -1,
        -1
      ],
      "type": "VEC3"
    },
    {
      "bufferView": 1,
      "componentType": 5126,
      "count": 22234,
      "max": [
        0.9676374197006226,
        0.9796046018600464,
        0.8089432120323181
      ],
      "min": [
        -0.9676378965377808,
        -0.9676375985145569,
        -0.9908630847930908
      ],
      "type": "VEC3"
    },
    {
      "bufferView": 2,
      "componentType": 5126,
      "count": 22234,
      "max": [
        0.9956167340278625,
        0.8686246871948242
      ],
      "min": [
        0.001953125,
        0.001953125
      ],
      "type": "VEC2"
    },
    {
      "bufferView": 3,
      "componentType": 5125,
      "count": 119328,
      "max": [
        22233
      ],
      "min": [
        0
      ],
      "type": "SCALAR"
    },
    {
      "bufferView": 4,
      "componentType": 5126,
      "count": 1520,
      "max": [
        1,
        1,
        0.994147777557373
      ],
      "min": [
        -1,
        -1,
        0
      ],
      "type": "VEC3"
    },
    {
      "bufferView": 5,
      "componentType": 5126,
      "count": 1520,
      "max": [
        0.3981478810310364,
        0.05236194655299187,
        0.05236194655299187
      ],
      "min": [
        -0.3981478810310364,
        -0.7798631191253662,
        -0.05236194655299187
      ],
      "type": "VEC3"
    },
    {
      "bufferView": 6,
      "componentType": 5126,
      "count": 1520,
      "max": [
        0.948782205581665,
        0.7309250831604004
      ],
      "min": [
        0.001953125,
        0.001953125
      ],
      "type": "VEC2"
    },
    {
      "bufferView": 7,
      "componentType": 5125,
      "count": 5220,
      "max": [
        1519
      ],
      "min": [
        0
      ],
      "type": "SCALAR"
    },
    {
      "bufferView": 8,
      "componentType": 5126,
      "count": 49,
      "max": [
        0.30805838108062744,
        0.30805838108062744,
        1
      ],
      "min": [
        -0.30805838108062744,
        -0.30805838108062744,
        0.9454177021980286
      ],
      "type": "VEC3"
    },
    {
      "bufferView": 9,
      "componentType": 5126,
      "count": 49,
      "max": [
        1,
        1,
        0.5088424682617188
      ],
      "min": [
        -1,
        -1,
        0.14030812680721283
      ],
      "type": "VEC3"
    },
    {
      "bufferView": 10,
      "componentType": 5126,
      "count": 49,
      "max": [
        0.11482230573892593,
        0.6809145212173462
      ],
      "min": [
        0.05209394171833992,
        0.618148684501648
      ],
      "type": "VEC2"
    },
    {
      "bufferView": 11,
      "componentType": 5125,
      "count": 216,
      "max": [
        48
      ],
      "min": [
        0
      ],
      "type": "SCALAR"
    },
    {
      "bufferView": 12,
      "componentType": 5126,
      "count": 6432,
      "max": [
        0.9999982118606567,
        0.9999998807907104,
        0.9999828338623047
      ],
      "min": [
        -0.9999982118606567,
        -0.9999988079071045,
        -0.9959748983383179
      ],
      "type": "VEC3"
    },
    {
      "bufferView": 13,
      "componentType": 5126,
      "count": 6432,
      "max": [
        1.0426695346832275,
        1.0426691770553589,
        0.49606871604919434
      ],
      "min": [
        -1.0426692962646484,
        -1.0426422357559204,
        -0.2453860640525818
      ],
      "type": "VEC3"
    },
    {
      "bufferView": 14,
      "componentType": 5126,
      "count": 6432,
      "max": [
        0.998046875,
        0.9271726608276367
      ],
      "min": [
        0.001953125,
        0.001953125
      ],
      "type": "VEC2"
    },
    {
      "bufferView": 15,
      "componentType": 5125,
      "count": 33600,
      "max": [
        6431
      ],
      "min": [
        0
      ],
      "type": "SCALAR"
    },
    {
      "bufferView": 16,
      "componentType": 5126,
      "count": 3690,
      "max": [
        1,
        1,
        0.9999982118606567
      ],
      "min": [
        -1,
        -1,
        -0.9999984502792358
      ],
      "type": "VEC3"
    },
    {
      "bufferView": 17,
      "componentType": 5126,
      "count": 3690,
      "max": [
        1.254111647605896,
        1.2541104555130005,
        -0.2964184284210205
      ],
      "min": [
        -1.2541115283966064,
        -1.2541019916534424,
        -0.9171618819236755
      ],
      "type": "VEC3"
    },
    {
      "bufferView": 18,
      "componentType": 5126,
      "count": 3690,
      "max": [
        0.46055126190185547,
        0.9659651517868042
      ],
      "min": [
        0.18428337574005127,
        0.38238927721977234
      ],
      "type": "VEC2"
    },
    {
      "bufferView": 19,
      "componentType": 5125,
      "count": 21120,
      "max": [
        3689
      ],
      "min": [
        0
      ],
      "type": "SCALAR"
    }
  ],
  "materials": [
    {
      "pbrMetallicRoughness": {
        "metallicFactor": 1,
        "roughnessFactor": 0.3094512195121951,
        "metallicRoughnessTexture": {
          "index": 0
        },
        "baseColorTexture": {
          "index": 1
        }
      },
      "emissiveFactor": [
        1,
        1,
        1
      ],
      "emissiveTexture": {
        "index": 2
      },
      "doubleSided": true,
      "name": "Scene_-_Root"
    },
    {
      "pbrMetallicRoughness": {
        "metallicFactor": 1,
        "roughnessFactor": 0.3094512195121951,
        "metallicRoughnessTexture": {
          "index": 0
        },
        "baseColorTexture": {
          "index": 1
        }
      },
      "emissiveFactor": [
        1,
        1,
        1
      ],
      "emissiveTexture": {
        "index": 2
      },
      "doubleSided": true,
      "name": "Scene_-_Root"
    },
    {
      "pbrMetallicRoughness": {
        "metallicFactor": 1,
        "roughnessFactor": 0.3094512195121951,
        "metallicRoughnessTexture": {
          "index": 0
        },
        "baseColorTexture": {
          "index": 1
        }
      },
      "emissiveFactor": [
        1,
        1,
        1
      ],
      "emissiveTexture": {
        "index": 2
      },
      "doubleSided": true,
      "name": "Scene_-_Root"
    },
    {
      "pbrMetallicRoughness": {
        "metallicFactor": 1,
        "roughnessFactor": 0.3094512195121951,
        "metallicRoughnessTexture": {
          "index": 0
        },
        "baseColorTexture": {
          "index": 1
        }
      },
      "emissiveFactor": [
        1,
        1,
        1
      ],
      "emissiveTexture": {
        "index": 2
      },
      "doubleSided": true,
      "name": "Scene_-_Root"
    },
    {
      "pbrMetallicRoughness": {
        "metallicFactor": 1,
        "roughnessFactor": 0.3094512195121951,
        "metallicRoughnessTexture": {
          "index": 0
        },
        "baseColorTexture": {
          "index": 1
        }
      },
      "emissiveFactor": [
        1,
        1,
        1
      ],
      "emissiveTexture": {
        "index": 2
      },
      "doubleSided": true,
      "name": "Scene_-_Root"
    }
  ],
  "textures": [
    {
      "sampler": 0,
      "source": 0,
      "name": "sensor/textures/Scene_-_Root_metallicRoughness.png"
    },
    {
      "sampler": 1,
      "source": 1,
      "name": "sensor/textures/Scene_-_Root_baseColor.png"
    },
    {
      "sampler": 2,
      "source": 2,
      "name": "sensor/textures/Scene_-_Root_emissive.png"
    }
  ],
  "samplers": [
    {
      "magFilter": 9729,
      "minFilter": 9987,
      "wrapS": 10497,
      "wrapT": 10497
    },
    {
      "magFilter": 9729,
      "minFilter": 9987,
      "wrapS": 10497,
      "wrapT": 10497
    },
    {
      "magFilter": 9729,
      "minFilter": 9987,
      "wrapS": 10497,
      "wrapT": 10497
    }
  ],
  "images": [
    {
      "mimeType": "image/png",
      "uri": "data:image/png;base64,"
    },
    {
      "mimeType": "image/png",
      "uri": "data:image/png;base64,"
    },
    {
      "mimeType": "image/png",
      "uri": "data:image/png;base64,"
    }
  ],
  "meshes": [
    {
      "primitives": [
        {
          "mode": 4,
          "attributes": {
            "NORMAL": 0,
            "POSITION": 1,
            "TEXCOORD_0": 2
          },
          "indices": 3,
          "material": 0
        }
      ]
    },
    {
      "primitives": [
        {
          "mode": 4,
          "attributes": {
            "NORMAL": 4,
            "POSITION": 5,
            "TEXCOORD_0": 6
          },
          "indices": 7,
          "material": 1
        }
      ]
    },
    {
      "primitives": [
        {
          "mode": 4,
          "attributes": {
            "NORMAL": 8,
            "POSITION": 9,
            "TEXCOORD_0": 10
          },
          "indices": 11,
          "material": 2
        }
      ]
    },
    {
      "primitives": [
        {
          "mode": 4,
          "attributes": {
            "NORMAL": 12,
            "POSITION": 13,
            "TEXCOORD_0": 14
          },
          "indices": 15,
          "material": 3
        }
      ]
    },
    {
      "primitives": [
        {
          "mode": 4,
          "attributes": {
            "NORMAL": 16,
            "POSITION": 17,
            "TEXCOORD_0": 18
          },
          "indices": 19,
          "material": 4
        }
      ]
    }
  ]
}