{
  "asset": {
    "extras": {
      "author": "Big guy (https://sketchfab.com/ondra.lit)",
      "license": "CC-BY-4.0 (http://creativecommons.org/licenses/by/4.0/)",
      "source": "https://sketchfab.com/3d-models/tf2-spytech-server-008e8cd461c44ba98609d73a97f86b86",
      "title": "TF2 Spytech Server"
    },
    "generator": "gltfeditor.com",
    "version": "2.0"
  },
  "buffers": [
    {
      "uri": "data:application/octet-stream;base64,",
      "byteLength": 623656
    }
  ],
  "bufferViews": [
    {
      "buffer": 0,
      "byteOffset": 0,
      "byteLength": 51200,
      "byteStride": 8,
      "target": 34962
    },
    {
      "buffer": 0,
      "byteOffset": 51200,
      "byteLength": 153600,
      "byteStride": 24,
      "target": 34962
    },
    {
      "buffer": 0,
      "byteOffset": 204800,
      "byteLength": 204800,
      "byteStride": 32,
      "target": 34962
    },
    {
      "buffer": 0,
      "byteOffset": 409600,
      "byteLength": 153600,
      "byteStride": 24,
      "target": 34962
    },
    {
      "buffer": 0,
      "byteOffset": 563200,
      "byteLength": 60456,
      "target": 34963
    }
  ],
  "accessors": [
    {
      "bufferView": 0,
      "byteOffset": 0,
      "componentType": 5123,
      "normalized": false,
      "count": 6400,
      "min": [
        1,
        1,
        1,
        1
      ],
      "max": [
        4,
        1,
        1,
        1
      ],
      "type": "VEC4"
    },
    {
      "bufferView": 1,
      "byteOffset": 0,
      "componentType": 5126,
      "normalized": false,
      "count": 6400,
      "min": [
        -1,
        -1,
        -1
      ],
      "max": [
        1,
        1,
        1
      ],
      "type": "VEC3"
    },
    {
      "bufferView": 1,
      "byteOffset": 12,
      "componentType": 5126,
      "normalized": false,
      "count": 6400,
      "min": [
        -1,
        -2.3841850804728892e-7,
        -11.25326156616211
      ],
      "max": [
        1,
        4.942271709442139,
        -8.849321365356445
      ],
      "type": "VEC3"
    },
    {
      "bufferView": 2,
      "byteOffset": 0,
      "componentType": 5126,
      "normalized": false,
      "count": 6400,
      "min": [
        -1,
        -1,
        -1,
        -1
      ],
      "max": [
        1,
        1,
        1,
        1
      ],
      "type": "VEC4"
    },
    {
      "bufferView": 2,
      "byteOffset": 16,
      "componentType": 5126,
      "normalized": false,
      "count": 6400,
      "min": [
        1,
        0,
        0,
        0
      ],
      "max": [
        1,
        0,
        0,
        0
      ],
      "type": "VEC4"
    },
    {
      "bufferView": 3,
      "byteOffset": 0,
      "componentType": 5126,
      "normalized": false,
      "count": 6400,
      "min": [
        0.002700617304071784,
        0.002700617304071784
      ],
      "max": [
        0.9971044659614563,
        0.9990234375
      ],
      "type": "VEC2"
    },
    {
      "bufferView": 3,
      "byteOffset": 8,
      "componentType": 5126,
      "normalized": false,
      "count": 6400,
      "min": [
        0.002700617304071784,
        0.002700617304071784
      ],
      "max": [
        0.9971044659614563,
        0.9990234375
      ],
      "type": "VEC2"
    },
    {
      "bufferView": 3,
      "byteOffset": 16,
      "componentType": 5126,
      "normalized": false,
      "count": 6400,
      "min": [
        0.002700617304071784,
        0.002700617304071784
      ],
      "max": [
        0.9971044659614563,
        0.9990234375
      ],
      "type": "VEC2"
    },
    {
      "bufferView": 4,
      "byteOffset": 0,
      "componentType": 5125,
      "normalized": false,
      "count": 15114,
      "min": [
        0
      ],
      "max": [
        6399
      ],
      "type": "SCALAR"
    }
  ],
  "scene": 0,
  "scenes": [
    {
      "nodes": [
        14
      ],
      "name": "Sketchfab_Scene"
    }
  ],
  "nodes": [
    {
      "name": "Server.001",
      "matrix": [
        41.067901611328125,
        0,
        0,
        0,
        0,
        -0.000005517842510016635,
        -41.06794738769531,
        0,
        0,
        41.06794738769531,
        -0.000005517842510016635,
        0,
        0,
        0,
        -412.71160888671875,
        1
      ]
    },
    {
      "name": "Bone.001_end_03",
      "matrix": [
        1,
        3.76158192263132e-37,
        0,
        0,
        -3.76158192263132e-37,
        1,
        7.888609052210118e-31,
        0,
        0,
        -7.888609052210118e-31,
        1,
        0,
        0,
        0.1464463472366333,
        -4.440892098500626e-16,
        1
      ]
    },
    {
      "name": "Bone.001_01",
      "children": [
        1
      ],
      "matrix": [
        1,
        -1.6348314701986055e-8,
        -4.190028235484533e-8,
        0,
        7.642892541070978e-9,
        -0.8562845587730408,
        0.5165048837661743,
        0,
        -4.4322543857333585e-8,
        -0.5165048837661743,
        -0.8562845587730408,
        0,
        0.345477432012558,
        1.548725962638855,
        0.19997020065784454,
        1
      ]
    },
    {
      "name": "Bone.002_end_04",
      "matrix": [
        1,
        1.5949615766647236e-23,
        -5.293955920339377e-23,
        0,
        -1.5949615766647236e-23,
        1,
        0,
        0,
        5.293955920339377e-23,
        0,
        1,
        0,
        0,
        0.11982488632202148,
        0,
        1
      ]
    },
    {
      "name": "Bone.002_02",
      "children": [
        3
      ],
      "matrix": [
        1,
        -6.695363197195547e-8,
        2.3389127079553873e-8,
        0,
        -2.792686970565228e-8,
        -0.6748876571655273,
        -0.7379202842712402,
        0,
        6.519147888184307e-8,
        0.7379202842712402,
        -0.6748876571655273,
        0,
        0.345477432012558,
        1.548725962638855,
        -0.2000228613615036,
        1
      ]
    },
    {
      "name": "Bone_00",
      "children": [
        2,
        4
      ],
      "matrix": [
        1,
        0,
        0,
        0,
        0,
        -1.3435884227419592e-7,
        0.9999998211860657,
        0,
        0,
        -0.9999998211860657,
        -1.3435884227419592e-7,
        0,
        0,
        0,
        -9.791361321731529e-8,
        1
      ]
    },
    {
      "name": "_rootJoint",
      "children": [
        5
      ]
    },
    {
      "name": "Object_9",
      "mesh": 0
    },
    {
      "name": "Object_8",
      "matrix": [
        41.067901611328125,
        0,
        0,
        0,
        0,
        0.0000014056959116715007,
        -41.06794738769531,
        0,
        0,
        41.06794738769531,
        0.0000014056959116715007,
        0,
        0,
        1.7540886278200052e-12,
        -412.71160888671875,
        1
      ]
    },
    {
      "name": "Object_6",
      "children": [
        6,
        7,
        8
      ]
    },
    {
      "name": "Armature",
      "children": [
        9
      ],
      "matrix": [
        100,
        0,
        0,
        0,
        0,
        -0.000013435885193757713,
        -100,
        0,
        0,
        100,
        -0.000013435885193757713,
        0,
        0,
        0,
        -412.71160888671875,
        1
      ]
    },
    {
      "name": "RootNode",
      "children": [
        0,
        10
      ]
    },
    {
      "name": "Object_2",
      "children": [
        11
      ]
    },
    {
      "name": "ff416eef1c2b426080057886a54d9631.fbx",
      "children": [
        12
      ],
      "matrix": [
        0.009999999776482582,
        0,
        0,
        0,
        0,
        3.42285422227917e-10,
        0.009999999776482582,
        0,
        0,
        -0.009999999776482582,
        3.42285422227917e-10,
        0,
        0,
        0,
        0,
        1
      ]
    },
    {
      "name": "Sketchfab_model",
      "children": [
        13
      ],
      "matrix": [
        -1,
        -1.2246468525851679e-16,
        6.063231243035733e-16,
        0,
        -1.224647646678556e-16,
        0.9999999403953552,
        -1.5099578831723193e-7,
        0,
        -6.063230713640141e-16,
        -1.5099578831723193e-7,
        -0.9999999403953552,
        0,
        0,
        -4.099999904632568,
        -10,
        1
      ]
    }
  ],
  "meshes": [
    {
      "primitives": [
        {
          "material": 0,
          "mode": 4,
          "attributes": {
            "JOINTS_0": 0,
            "NORMAL": 1,
            "POSITION": 2,
            "TANGENT": 3,
            "WEIGHTS_0": 4,
            "TEXCOORD_0": 5,
            "TEXCOORD_1": 6,
            "TEXCOORD_2": 7
          },
          "indices": 8
        }
      ]
    }
  ],
  "materials": [
    {
      "name": "Server_1",
      "pbrMetallicRoughness": {
        "baseColorFactor": [
          1,
          1,
          1,
          1
        ],
        "metallicFactor": 1,
        "roughnessFactor": 1,
        "baseColorTexture": {
          "index": 0,
          "texCoord": 0
        },
        "metallicRoughnessTexture": {
          "index": 1,
          "texCoord": 0
        }
      },
      "emissiveFactor": [
        1,
        1,
        1
      ],
      "alphaMode": "OPAQUE",
      "doubleSided": true,
      "normalTexture": {
        "index": 2,
        "texCoord": 0,
        "scale": 1
      },
      "occlusionTexture": {
        "index": 1,
        "texCoord": 0,
        "strength": 1
      },
      "emissiveTexture": {
        "index": 3,
        "texCoord": 0
      }
    }
  ],
  "textures": [
    {
      "sampler": 0,
      "name": "tf2_spytech_server/textures/Server_1_baseColor.jpeg",
      "source": 0
    },
    {
      "sampler": 1,
      "name": "tf2_spytech_server/textures/Server_1_metallicRoughness.png",
      "source": 1
    },
    {
      "sampler": 2,
      "name": "tf2_spytech_server/textures/Server_1_normal.png",
      "source": 2
    },
    {
      "sampler": 3,
      "name": "tf2_spytech_server/textures/Server_1_emissive.jpeg",
      "source": 3
    }
  ],
  "samplers": [
    {
      "magFilter": 9729,
      "minFilter": 9987,
      "wrapS": 10497,
      "wrapT": 10497
    },
    {
      "magFilter": 9729,
      "minFilter": 9987,
      "wrapS": 10497,
      "wrapT": 10497
    },
    {
      "magFilter": 9729,
      "minFilter": 9987,
      "wrapS": 10497,
      "wrapT": 10497
    },
    {
      "magFilter": 9729,
      "minFilter": 9987,
      "wrapS": 10497,
      "wrapT": 10497
    }
  ],
  "images": [
    {
      "uri": "data:image/jpeg;base64,",
      "mimeType": "image/jpeg"
    },
    {
      "uri": "data:image/jpeg;base64,",
      "mimeType": "image/jpeg"
    },
    {
      "uri": "data:image/jpeg;base64,",
      "mimeType": "image/jpeg"
    },
    {
      "uri": "data:image/jpeg;base64,",
      "mimeType": "image/jpeg"
    }
  ],
  "extensionsUsed": [
    "KHR_mesh_quantization"
  ],
  "extensionsRequired": [
    "KHR_mesh_quantization"
  ]
}