{
  "accessors": [
    {
      "bufferView": 2,
      "componentType": 5126,
      "count": 7838,
      "max": [
        1.2827099561691284,
        1.930609941482544,
        0.16301999986171722
      ],
      "min": [
        -1.2827099561691284,
        -1.930609941482544,
        -0.6478899717330933
      ],
      "type": "VEC3"
    },
    {
      "bufferView": 2,
      "byteOffset": 94056,
      "componentType": 5126,
      "count": 7838,
      "max": [
        0.9968977570533752,
        0.9974557757377625,
        0.999997079372406
      ],
      "min": [
        -1.0,
        -0.9974557757377625,
        -0.9549776315689087
      ],
      "type": "VEC3"
    },
    {
      "bufferView": 1,
      "componentType": 5126,
      "count": 7838,
      "max": [
        0.7881500124931335,
        0.8121299743652344
      ],
      "min": [
        0.0002500000118743628,
        0.0002500000118743628
      ],
      "type": "VEC2"
    },
    {
      "bufferView": 0,
      "componentType": 5125,
      "count": 41079,
      "type": "SCALAR"
    },
    {
      "bufferView": 2,
      "byteOffset": 188112,
      "componentType": 5126,
      "count": 5979,
      "max": [
        1.2827099561691284,
        1.930609941482544,
        2.1444199085235596
      ],
      "min": [
        -1.4754199981689453,
        -1.930609941482544,
        -0.6480900049209595
      ],
      "type": "VEC3"
    },
    {
      "bufferView": 2,
      "byteOffset": 259860,
      "componentType": 5126,
      "count": 5979,
      "max": [
        0.9953473210334778,
        0.9979344606399536,
        0.9993168115615845
      ],
      "min": [
        -1.0,
        -0.9987051486968994,
        -0.9999796748161316
      ],
      "type": "VEC3"
    },
    {
      "bufferView": 1,
      "byteOffset": 62704,
      "componentType": 5126,
      "count": 5979,
      "max": [
        1.0,
        0.9999799728393555
      ],
      "min": [
        0.0,
        0.0
      ],
      "type": "VEC2"
    },
    {
      "bufferView": 0,
      "byteOffset": 164316,
      "componentType": 5125,
      "count": 26124,
      "type": "SCALAR"
    },
    {
      "bufferView": 2,
      "byteOffset": 331608,
      "componentType": 5126,
      "count": 240,
      "max": [
        0.7179099917411804,
        0.5116199851036072,
        0.10595999658107758
      ],
      "min": [
        0.6387199759483337,
        -0.5116199851036072,
        0.1030300036072731
      ],
      "type": "VEC3"
    },
    {
      "bufferView": 2,
      "byteOffset": 334488,
      "componentType": 5126,
      "count": 240,
      "max": [
        0.03699057921767235,
        0.0,
        0.9993168115615845
      ],
      "min": [
        0.03696062043309212,
        0.0,
        0.999315619468689
      ],
      "type": "VEC3"
    },
    {
      "bufferView": 1,
      "byteOffset": 110536,
      "componentType": 5126,
      "count": 240,
      "max": [
        0.7946299910545349,
        0.7946299910545349
      ],
      "min": [
        0.2053699940443039,
        0.2053699940443039
      ],
      "type": "VEC2"
    },
    {
      "bufferView": 0,
      "byteOffset": 268812,
      "componentType": 5125,
      "count": 1026,
      "type": "SCALAR"
    },
    {
      "bufferView": 2,
      "byteOffset": 337368,
      "componentType": 5126,
      "count": 9627,
      "max": [
        -0.8475199937820435,
        -0.014050000347197056,
        -0.27081000804901123
      ],
      "min": [
        -0.8487300276756287,
        -0.7569500207901001,
        -0.38425999879837036
      ],
      "type": "VEC3"
    },
    {
      "bufferView": 2,
      "byteOffset": 452892,
      "componentType": 5126,
      "count": 9627,
      "max": [
        -0.3757801651954651,
        0.8702133893966675,
        0.8732778429985046
      ],
      "min": [
        -1.0,
        -0.8738270998001099,
        -0.8782875537872314
      ],
      "type": "VEC3"
    },
    {
      "bufferView": 1,
      "byteOffset": 112456,
      "componentType": 5126,
      "count": 9627,
      "max": [
        0.5807899832725525,
        0.5158299803733826
      ],
      "min": [
        0.3076600134372711,
        9.999999747378752e-06
      ],
      "type": "VEC2"
    },
    {
      "bufferView": 0,
      "byteOffset": 272916,
      "componentType": 5125,
      "count": 54144,
      "type": "SCALAR"
    },
    {
      "bufferView": 2,
      "byteOffset": 568416,
      "componentType": 5126,
      "count": 14574,
      "max": [
        -0.8475199937820435,
        0.0,
        -0.26587000489234924
      ],
      "min": [
        -1.0311199426651,
        -0.7735400199890137,
        -0.3947199881076813
      ],
      "type": "VEC3"
    },
    {
      "bufferView": 2,
      "byteOffset": 743304,
      "componentType": 5126,
      "count": 14574,
      "max": [
        -0.00040000758599489927,
        0.9999924302101135,
        0.9999998211860657
      ],
      "min": [
        -1.0,
        -0.9999999403953552,
        -0.9999998211860657
      ],
      "type": "VEC3"
    },
    {
      "bufferView": 1,
      "byteOffset": 189472,
      "componentType": 5126,
      "count": 14574,
      "max": [
        1.0,
        1.0
      ],
      "min": [
        0.0,
        0.0
      ],
      "type": "VEC2"
    },
    {
      "bufferView": 0,
      "byteOffset": 489492,
      "componentType": 5125,
      "count": 69984,
      "type": "SCALAR"
    }
  ],
  "asset": {
    "extras": {
      "author": "Gabriabel (https://sketchfab.com/Gabriabel)",
      "license": "CC-BY-4.0 (http://creativecommons.org/licenses/by/4.0/)",
      "source": "https://sketchfab.com/3d-models/wi-fi-router-414a08f14d5745559e2238bb62a0aedc",
      "title": "Wi-Fi Router"
    },
    "generator": "Sketchfab-12.63.0",
    "version": "2.0"
  },
  "bufferViews": [
    {
      "buffer": 0,
      "byteLength": 769428,
      "name": "floatBufferViews",
      "target": 34963
    },
    {
      "buffer": 0,
      "byteLength": 306064,
      "byteOffset": 769428,
      "byteStride": 8,
      "name": "floatBufferViews",
      "target": 34962
    },
    {
      "buffer": 0,
      "byteLength": 918192,
      "byteOffset": 1075492,
      "byteStride": 12,
      "name": "floatBufferViews",
      "target": 34962
    }
  ],
  "buffers": [
    {
      "byteLength": 1993684,
      "uri": "scene.bin"
    }
  ],
  "images": [
    {
      "uri": "textures/Material.001_baseColor.jpeg"
    },
    {
      "uri": "textures/Material_baseColor.jpeg"
    },
    {
      "uri": "textures/Material.002_baseColor.jpeg"
    },
    {
      "uri": "textures/Material.004_baseColor.jpeg"
    }
  ],
  "materials": [
    {
      "doubleSided": true,
      "name": "Material.001",
      "pbrMetallicRoughness": {
        "baseColorTexture": {
          "index": 0
        },
        "metallicFactor": 0.0,
        "roughnessFactor": 0.6
      }
    },
    {
      "doubleSided": true,
      "name": "Material",
      "pbrMetallicRoughness": {
        "baseColorTexture": {
          "index": 1
        },
        "metallicFactor": 0.0,
        "roughnessFactor": 0.6
      }
    },
    {
      "doubleSided": true,
      "name": "Material.002",
      "pbrMetallicRoughness": {
        "baseColorTexture": {
          "index": 2
        },
        "metallicFactor": 0.0,
        "roughnessFactor": 0.6
      }
    },
    {
      "doubleSided": true,
      "name": "Material.003",
      "pbrMetallicRoughness": {
        "baseColorTexture": {
          "index": 0
        },
        "metallicFactor": 0.0,
        "roughnessFactor": 0.6
      }
    },
    {
      "doubleSided": true,
      "name": "Material.004",
      "pbrMetallicRoughness": {
        "baseColorTexture": {
          "index": 3
        },
        "metallicFactor": 0.0,
        "roughnessFactor": 0.6
      }
    }
  ],
  "meshes": [
    {
      "name": "Cube_0",
      "primitives": [
        {
          "attributes": {
            "NORMAL": 1,
            "POSITION": 0,
            "TEXCOORD_0": 2
          },
          "indices": 3,
          "material": 2,
          "mode": 4
        }
      ]
    },
    {
      "name": "Cube_1",
      "primitives": [
        {
          "attributes": {
            "NORMAL": 5,
            "POSITION": 4,
            "TEXCOORD_0": 6
          },
          "indices": 7,
          "material": 3,
          "mode": 4
        }
      ]
    },
    {
      "name": "Cube_2",
      "primitives": [
        {
          "attributes": {
            "NORMAL": 9,
            "POSITION": 8,
            "TEXCOORD_0": 10
          },
          "indices": 11,
          "material": 4,
          "mode": 4
        }
      ]
    },
    {
      "name": "Cube.001_0",
      "primitives": [
        {
          "attributes": {
            "NORMAL": 13,
            "POSITION": 12,
            "TEXCOORD_0": 14
          },
          "indices": 15,
          "material": 0,
          "mode": 4
        }
      ]
    },
    {
      "name": "Cube.001_1",
      "primitives": [
        {
          "attributes": {
            "NORMAL": 17,
            "POSITION": 16,
            "TEXCOORD_0": 18
          },
          "indices": 19,
          "material": 1,
          "mode": 4
        }
      ]
    }
  ],
  "nodes": [
    {
      "children": [
        1
      ],
      "matrix": [
        1.0,
        0.0,
        0.0,
        0.0,
        0.0,
        2.220446049250313e-16,
        -1.0,
        0.0,
        0.0,
        1.0,
        2.220446049250313e-16,
        0.0,
        0.0,
        0.0,
        0.0,
        1.0
      ],
      "name": "Sketchfab_model"
    },
    {
      "children": [
        2,
        4,
        8
      ],
      "name": "Root"
    },
    {
      "children": [
        3
      ],
      "matrix": [
        -0.29086000000000006,
        0.9551700000000001,
        -0.05519000000000001,
        0.0,
        -0.7711,
        -0.19988000000000003,
        0.6045200000000001,
        0.0,
        0.5663900000000001,
        0.21839000000000003,
        0.7946700000000001,
        0.0,
        4.076250000000001,
        1.00545,
        5.903860000000001,
        1.0
      ],
      "name": "Lamp"
    },
    {
      "name": "Lamp"
    },
    {
      "children": [
        5,
        6,
        7
      ],
      "matrix": [
        1.0,
        0.0,
        0.0,
        0.0,
        0.0,
        1.0,
        0.0,
        0.0,
        0.0,
        0.0,
        1.0,
        0.0,
        0.0,
        0.0,
        0.6480000000000001,
        1.0
      ],
      "name": "Cube"
    },
    {
      "mesh": 0,
      "name": "Cube_0"
    },
    {
      "mesh": 1,
      "name": "Cube_1"
    },
    {
      "mesh": 2,
      "name": "Cube_2"
    },
    {
      "children": [
        9,
        10
      ],
      "matrix": [
        1.0,
        0.0,
        0.0,
        0.0,
        0.0,
        1.0,
        0.0,
        0.0,
        0.0,
        0.0,
        1.0,
        0.0,
        0.0,
        0.0,
        0.6480000000000001,
        1.0
      ],
      "name": "Cube.001"
    },
    {
      "mesh": 3,
      "name": "Cube.001_0"
    },
    {
      "mesh": 4,
      "name": "Cube.001_1"
    }
  ],
  "samplers": [
    {
      "magFilter": 9729,
      "minFilter": 9987,
      "wrapS": 10497,
      "wrapT": 10497
    }
  ],
  "scene": 0,
  "scenes": [
    {
      "name": "Sketchfab_Scene",
      "nodes": [
        0
      ]
    }
  ],
  "textures": [
    {
      "sampler": 0,
      "source": 0
    },
    {
      "sampler": 0,
      "source": 1
    },
    {
      "sampler": 0,
      "source": 2
    },
    {
      "sampler": 0,
      "source": 3
    }
  ]
}
