{
  "asset": {
    "extras": {
      "author": "Vladyslav Holhanov (https://sketchfab.com/vladicom08)",
      "license": "CC-BY-4.0 (http://creativecommons.org/licenses/by/4.0/)",
      "source": "https://sketchfab.com/3d-models/security-camera-03aa77b6c6864f3e93fc3deecbd79309",
      "title": "Security Camera"
    },
    "generator": "gltfeditor.com",
    "version": "2.0"
  },
  "buffers": [
    {
      "uri": "data:application/octet-stream;base64,",
      "byteLength": 1188800
    },
    {
      "uri": "data:application/octet-stream;base64,",
      "byteLength": 69520
    },
    {
      "uri": "data:application/octet-stream;base64,",
      "byteLength": 2432
    },
    {
      "uri": "data:application/octet-stream;base64,",
      "byteLength": 340224
    },
    {
      "uri": "data:application/octet-stream;base64,",
      "byteLength": 202560
    }
  ],
  "bufferViews": [
    {
      "buffer": 0,
      "byteOffset": 0,
      "byteLength": 533616,
      "byteStride": 24,
      "target": 34962
    },
    {
      "buffer": 0,
      "byteOffset": 533616,
      "byteLength": 177872,
      "byteStride": 8,
      "target": 34962
    },
    {
      "buffer": 0,
      "byteOffset": 711488,
      "byteLength": 477312,
      "target": 34963
    },
    {
      "buffer": 1,
      "byteOffset": 0,
      "byteLength": 36480,
      "byteStride": 24,
      "target": 34962
    },
    {
      "buffer": 1,
      "byteOffset": 36480,
      "byteLength": 12160,
      "byteStride": 8,
      "target": 34962
    },
    {
      "buffer": 1,
      "byteOffset": 48640,
      "byteLength": 20880,
      "target": 34963
    },
    {
      "buffer": 2,
      "byteOffset": 0,
      "byteLength": 1176,
      "byteStride": 24,
      "target": 34962
    },
    {
      "buffer": 2,
      "byteOffset": 1176,
      "byteLength": 392,
      "byteStride": 8,
      "target": 34962
    },
    {
      "buffer": 2,
      "byteOffset": 1568,
      "byteLength": 864,
      "target": 34963
    },
    {
      "buffer": 3,
      "byteOffset": 0,
      "byteLength": 154368,
      "byteStride": 24,
      "target": 34962
    },
    {
      "buffer": 3,
      "byteOffset": 154368,
      "byteLength": 51456,
      "byteStride": 8,
      "target": 34962
    },
    {
      "buffer": 3,
      "byteOffset": 205824,
      "byteLength": 134400,
      "target": 34963
    },
    {
      "buffer": 4,
      "byteOffset": 0,
      "byteLength": 88560,
      "byteStride": 24,
      "target": 34962
    },
    {
      "buffer": 4,
      "byteOffset": 88560,
      "byteLength": 29520,
      "byteStride": 8,
      "target": 34962
    },
    {
      "buffer": 4,
      "byteOffset": 118080,
      "byteLength": 84480,
      "target": 34963
    }
  ],
  "accessors": [
    {
      "bufferView": 0,
      "byteOffset": 0,
      "componentType": 5126,
      "normalized": false,
      "count": 22234,
      "min": [
        -1,
        -1,
        -1
      ],
      "max": [
        1,
        1,
        1
      ],
      "type": "VEC3"
    },
    {
      "bufferView": 0,
      "byteOffset": 12,
      "componentType": 5126,
      "normalized": false,
      "count": 22234,
      "min": [
        -0.9676378965377808,
        -0.9676375985145569,
        -0.9908630847930908
      ],
      "max": [
        0.9676374197006226,
        0.9796046018600464,
        0.8089432120323181
      ],
      "type": "VEC3"
    },
    {
      "bufferView": 1,
      "byteOffset": 0,
      "componentType": 5126,
      "normalized": false,
      "count": 22234,
      "min": [
        0.001953125,
        0.001953125
      ],
      "max": [
        0.9956167340278625,
        0.8686246871948242
      ],
      "type": "VEC2"
    },
    {
      "bufferView": 2,
      "byteOffset": 0,
      "componentType": 5125,
      "normalized": false,
      "count": 119328,
      "min": [
        0
      ],
      "max": [
        22233
      ],
      "type": "SCALAR"
    },
    {
      "bufferView": 3,
      "byteOffset": 0,
      "componentType": 5126,
      "normalized": false,
      "count": 1520,
      "min": [
        -1,
        -1,
        0
      ],
      "max": [
        1,
        1,
        0.994147777557373
      ],
      "type": "VEC3"
    },
    {
      "bufferView": 3,
      "byteOffset": 12,
      "componentType": 5126,
      "normalized": false,
      "count": 1520,
      "min": [
        -0.3981478810310364,
        -0.7798631191253662,
        -0.05236194655299187
      ],
      "max": [
        0.3981478810310364,
        0.05236194655299187,
        0.05236194655299187
      ],
      "type": "VEC3"
    },
    {
      "bufferView": 4,
      "byteOffset": 0,
      "componentType": 5126,
      "normalized": false,
      "count": 1520,
      "min": [
        0.001953125,
        0.001953125
      ],
      "max": [
        0.948782205581665,
        0.7309250831604004
      ],
      "type": "VEC2"
    },
    {
      "bufferView": 5,
      "byteOffset": 0,
      "componentType": 5125,
      "normalized": false,
      "count": 5220,
      "min": [
        0
      ],
      "max": [
        1519
      ],
      "type": "SCALAR"
    },
    {
      "bufferView": 6,
      "byteOffset": 0,
      "componentType": 5126,
      "normalized": false,
      "count": 49,
      "min": [
        -0.30805838108062744,
        -0.30805838108062744,
        0.9454177021980286
      ],
      "max": [
        0.30805838108062744,
        0.30805838108062744,
        1
      ],
      "type": "VEC3"
    },
    {
      "bufferView": 6,
      "byteOffset": 12,
      "componentType": 5126,
      "normalized": false,
      "count": 49,
      "min": [
        -1,
        -1,
        0.14030812680721283
      ],
      "max": [
        1,
        1,
        0.5088424682617188
      ],
      "type": "VEC3"
    },
    {
      "bufferView": 7,
      "byteOffset": 0,
      "componentType": 5126,
      "normalized": false,
      "count": 49,
      "min": [
        0.05209394171833992,
        0.618148684501648
      ],
      "max": [
        0.11482230573892593,
        0.6809145212173462
      ],
      "type": "VEC2"
    },
    {
      "bufferView": 8,
      "byteOffset": 0,
      "componentType": 5125,
      "normalized": false,
      "count": 216,
      "min": [
        0
      ],
      "max": [
        48
      ],
      "type": "SCALAR"
    },
    {
      "bufferView": 9,
      "byteOffset": 0,
      "componentType": 5126,
      "normalized": false,
      "count": 6432,
      "min": [
        -0.9999982118606567,
        -0.9999988079071045,
        -0.9959748983383179
      ],
      "max": [
        0.9999982118606567,
        0.9999998807907104,
        0.9999828338623047
      ],
      "type": "VEC3"
    },
    {
      "bufferView": 9,
      "byteOffset": 12,
      "componentType": 5126,
      "normalized": false,
      "count": 6432,
      "min": [
        -1.0426692962646484,
        -1.0426422357559204,
        -0.2453860640525818
      ],
      "max": [
        1.0426695346832275,
        1.0426691770553589,
        0.49606871604919434
      ],
      "type": "VEC3"
    },
    {
      "bufferView": 10,
      "byteOffset": 0,
      "componentType": 5126,
      "normalized": false,
      "count": 6432,
      "min": [
        0.001953125,
        0.001953125
      ],
      "max": [
        0.998046875,
        0.9271726608276367
      ],
      "type": "VEC2"
    },
    {
      "bufferView": 11,
      "byteOffset": 0,
      "componentType": 5125,
      "normalized": false,
      "count": 33600,
      "min": [
        0
      ],
      "max": [
        6431
      ],
      "type": "SCALAR"
    },
    {
      "bufferView": 12,
      "byteOffset": 0,
      "componentType": 5126,
      "normalized": false,
      "count": 3690,
      "min": [
        -1,
        -1,
        -0.9999984502792358
      ],
      "max": [
        1,
        1,
        0.9999982118606567
      ],
      "type": "VEC3"
    },
    {
      "bufferView": 12,
      "byteOffset": 12,
      "componentType": 5126,
      "normalized": false,
      "count": 3690,
      "min": [
        -1.2541115283966064,
        -1.2541019916534424,
        -0.9171618819236755
      ],
      "max": [
        1.254111647605896,
        1.2541104555130005,
        -0.2964184284210205
      ],
      "type": "VEC3"
    },
    {
      "bufferView": 13,
      "byteOffset": 0,
      "componentType": 5126,
      "normalized": false,
      "count": 3690,
      "min": [
        0.18428337574005127,
        0.38238927721977234
      ],
      "max": [
        0.46055126190185547,
        0.9659651517868042
      ],
      "type": "VEC2"
    },
    {
      "bufferView": 14,
      "byteOffset": 0,
      "componentType": 5125,
      "normalized": false,
      "count": 21120,
      "min": [
        0
      ],
      "max": [
        3689
      ],
      "type": "SCALAR"
    }
  ],
  "scene": 0,
  "scenes": [
    {
      "nodes": [
        12
      ],
      "name": "Sketchfab_Scene"
    }
  ],
  "nodes": [
    {
      "name": "Sphere.002__0",
      "mesh": 0
    },
    {
      "name": "Sphere.002",
      "children": [
        0
      ],
      "matrix": [
        89.09976196289062,
        -6.782561691513712e-15,
        -4.3266574235856486e-15,
        0,
        1.6357329588926836e-15,
        62.19013214111328,
        -63.80560302734375,
        0,
        7.877022703539887e-15,
        63.80560302734375,
        62.19013214111328,
        0,
        0,
        96.58325958251953,
        -0.8378736972808838,
        1
      ]
    },
    {
      "name": "Cylinder__0",
      "mesh": 1
    },
    {
      "name": "Cylinder",
      "children": [
        2
      ],
      "matrix": [
        100,
        -7.612322366424076e-15,
        -4.855970006390755e-15,
        0,
        1.835843751527683e-15,
        69.7983169555664,
        -71.61141967773438,
        0,
        8.840676841038054e-15,
        71.61141967773438,
        69.7983169555664,
        0,
        0,
        167.83177185058594,
        17.81170654296875,
        1
      ]
    },
    {
      "name": "Plane__0",
      "mesh": 2
    },
    {
      "name": "Plane",
      "children": [
        4
      ],
      "matrix": [
        19.624774932861328,
        -1.4939011035232136e-15,
        -9.529731579124086e-16,
        0,
        3.602803289773739e-16,
        13.69776439666748,
        -14.053580284118652,
        0,
        1.73496318630088e-15,
        14.053580284118652,
        13.69776439666748,
        0,
        0.0000018812717144101043,
        130.5634765625,
        32.83354187011719,
        1
      ]
    },
    {
      "name": "Sphere__0",
      "mesh": 3
    },
    {
      "name": "Sphere",
      "children": [
        6
      ],
      "matrix": [
        100,
        0,
        0,
        0,
        0,
        -0.000013435885193757713,
        -100,
        0,
        0,
        100,
        -0.000013435885193757713,
        0,
        0,
        84.99791717529297,
        0,
        1
      ]
    },
    {
      "name": "Sphere.001__0",
      "mesh": 4
    },
    {
      "name": "Sphere.001",
      "children": [
        8
      ],
      "matrix": [
        100,
        0,
        0,
        0,
        0,
        -0.000013435885193757713,
        -100,
        0,
        0,
        100,
        -0.000013435885193757713,
        0,
        0,
        90.17996978759766,
        0,
        1
      ]
    },
    {
      "name": "RootNode",
      "children": [
        1,
        3,
        5,
        7,
        9
      ]
    },
    {
      "name": "7753a399fa7a4cb4935d6f20a29b1484.fbx",
      "children": [
        10
      ],
      "matrix": [
        0.009999999776482582,
        0,
        0,
        0,
        0,
        3.42285422227917e-10,
        0.009999999776482582,
        0,
        0,
        -0.009999999776482582,
        3.42285422227917e-10,
        0,
        0,
        0,
        0,
        1
      ]
    },
    {
      "name": "Sketchfab_model",
      "children": [
        11
      ],
      "matrix": [
        1,
        0,
        0,
        0,
        0,
        3.422854177870249e-8,
        -0.9999999403953552,
        0,
        0,
        0.9999999403953552,
        3.422854177870249e-8,
        0,
        0,
        0.014999999664723873,
        0,
        1
      ]
    }
  ],
  "meshes": [
    {
      "primitives": [
        {
          "material": 0,
          "mode": 4,
          "attributes": {
            "NORMAL": 0,
            "POSITION": 1,
            "TEXCOORD_0": 2
          },
          "indices": 3
        }
      ]
    },
    {
      "primitives": [
        {
          "material": 0,
          "mode": 4,
          "attributes": {
            "NORMAL": 4,
            "POSITION": 5,
            "TEXCOORD_0": 6
          },
          "indices": 7
        }
      ]
    },
    {
      "primitives": [
        {
          "material": 0,
          "mode": 4,
          "attributes": {
            "NORMAL": 8,
            "POSITION": 9,
            "TEXCOORD_0": 10
          },
          "indices": 11
        }
      ]
    },
    {
      "primitives": [
        {
          "material": 0,
          "mode": 4,
          "attributes": {
            "NORMAL": 12,
            "POSITION": 13,
            "TEXCOORD_0": 14
          },
          "indices": 15
        }
      ]
    },
    {
      "primitives": [
        {
          "material": 0,
          "mode": 4,
          "attributes": {
            "NORMAL": 16,
            "POSITION": 17,
            "TEXCOORD_0": 18
          },
          "indices": 19
        }
      ]
    }
  ],
  "materials": [
    {
      "name": "Scene_-_Root",
      "pbrMetallicRoughness": {
        "baseColorFactor": [
          1,
          1,
          1,
          1
        ],
        "metallicFactor": 1,
        "roughnessFactor": 0.3094512195121951,
        "baseColorTexture": {
          "index": 0,
          "texCoord": 0
        },
        "metallicRoughnessTexture": {
          "index": 1,
          "texCoord": 0
        }
      },
      "emissiveFactor": [
        1,
        1,
        1
      ],
      "alphaMode": "OPAQUE",
      "doubleSided": true,
      "emissiveTexture": {
        "index": 2,
        "texCoord": 0
      }
    }
  ],
  "textures": [
    {
      "sampler": 0,
      "name": "sensor/textures/Scene_-_Root_baseColor.png",
      "source": 0
    },
    {
      "sampler": 1,
      "name": "sensor/textures/Scene_-_Root_metallicRoughness.png",
      "source": 1
    },
    {
      "sampler": 2,
      "name": "sensor/textures/Scene_-_Root_emissive.png",
      "source": 2
    }
  ],
  "samplers": [
    {
      "magFilter": 9729,
      "minFilter": 9987,
      "wrapS": 10497,
      "wrapT": 10497
    },
    {
      "magFilter": 9729,
      "minFilter": 9987,
      "wrapS": 10497,
      "wrapT": 10497
    },
    {
      "magFilter": 9729,
      "minFilter": 9987,
      "wrapS": 10497,
      "wrapT": 10497
    }
  ],
  "images": [
    {
      "uri": "data:image/jpeg;base64,",
      "mimeType": "image/jpeg"
    },
    {
      "uri": "data:image/jpeg;base64,",
      "mimeType": "image/jpeg"
    },
    {
      "uri": "data:image/jpeg;base64,",
      "mimeType": "image/jpeg"
    }
  ]
}